<svg width="47" height="47" viewBox="0 0 47 47" fill="none" xmlns="http://www.w3.org/2000/svg">
<path d="M41.8633 38.0219C45.0446 33.9788 47.6741 27.7036 46.8458 22.4279C46.5844 16.5536 44.1801 11.068 40.0065 6.88293C35.5802 2.44437 29.6952 0 23.4354 0C19.7324 0 16.1881 0.842477 12.9014 2.5037C12.4499 2.73203 12.2681 3.28397 12.4958 3.73667C12.7235 4.18937 13.274 4.37132 13.7254 4.14335C14.4487 3.77766 15.1863 3.4562 15.9357 3.17718L13.7028 10.0677H6.4853C6.97118 9.45315 7.49148 8.86093 8.048 8.29496C8.40299 7.93359 8.39869 7.35253 8.03867 6.99655C7.67866 6.64093 7.09883 6.64489 6.74419 7.0059C2.44158 11.3833 0 17.3544 0 23.5002C0 36.315 10.6628 47 23.4354 47C30.1301 47 38.0487 43.8347 41.8633 38.0219ZM37.9458 27.2624L31.9973 25.3246L29.2929 16.9772L32.969 11.9033H41.6761C43.5744 14.8956 44.7603 18.3838 44.9951 22.127L37.9458 27.2624ZM23.4354 30.6269L16.6758 25.7022L19.2576 17.7341H27.6129L30.1947 25.7022L23.4354 30.6269ZM45.0206 24.3779C44.8567 28.4813 43.5497 32.2942 41.41 35.5052L39.1829 28.6309L45.0206 24.3779ZM40.3734 10.0677H33.1677L30.9373 3.18365C34.6798 4.57771 37.9354 6.98325 40.3734 10.0677ZM23.4354 1.83597C25.2843 1.83597 27.0797 2.07042 28.7941 2.51089L31.4877 10.8242L27.8116 15.8985H19.0589L15.3828 10.8246L18.0782 2.50622C19.8123 2.06179 21.6024 1.83597 23.4354 1.83597ZM13.9015 11.9033L17.5777 16.9772L14.8732 25.3246L8.92473 27.2627L1.87502 22.1266C2.10308 18.4586 3.24157 14.9614 5.1815 11.9033H13.9015ZM1.85028 24.3779L7.68798 28.6309L5.46047 35.5052C3.32082 32.2942 2.01415 28.4813 1.85028 24.3779ZM6.80121 37.3088L9.49057 29.0088L15.4391 27.0707L22.52 32.2295V38.5012L15.4696 43.6376C12.0734 42.2821 9.09864 40.0869 6.80121 37.3088ZM17.5945 44.3589L23.4354 40.1034L29.2764 44.3589C27.4175 44.8832 25.4585 45.164 23.4354 45.164C21.412 45.164 19.453 44.8832 17.5945 44.3589ZM31.401 43.6376L24.3509 38.5012V32.2295L31.4318 27.0707L37.3799 29.0085L40.0693 37.3088C37.7719 40.0869 34.7971 42.2821 31.401 43.6376Z" fill="#FF7B31"/>
</svg>
